<?xml version="1.0" encoding="UTF-8"?>
<svg id="Livello_2" data-name="Livello 2" xmlns="http://www.w3.org/2000/svg" viewBox="0 0 54.46809 54.46809">
  <g id="Livello_1-2" data-name="Livello 1">
    <path d="M9.14422,42.48377c4.50379,.36654,8.50804-.7735,12.14748-3.5228-3.83592-.33481-6.41731-2.2053-7.83468-5.78281,1.28505,.14061,2.4854,.19534,3.77661-.20395-2.42976-.59046-4.25447-1.84624-5.49929-3.88961-.80158-1.31578-1.21688-2.74535-1.18198-4.35132,1.17119,.57092,2.34712,.96803,3.67329,.97765-3.7118-3.07222-4.54523-6.74947-2.56405-11.17596,4.5814,5.38391,10.30796,8.28291,17.31688,8.78727-.03696-.30743-.06178-.55206-.09628-.79531-.61732-4.35304,2.23219-8.24789,6.16317-9.22142,3.00642-.74456,5.65928-.01848,7.92711,2.0865,.20659,.19175,.3695,.26719,.66157,.20025,1.55859-.35723,3.0401-.90857,4.44323-1.67345,.11562-.06303,.23354-.12187,.44765-.23325-.67283,1.9635-1.8687,3.38928-3.49233,4.50851,1.56437-.12751,3.0403-.56638,4.57902-1.19518-.16448,.24586-.26969,.41936-.39054,.58119-.97524,1.30586-2.10062,2.4644-3.41307,3.43427-.22607,.16706-.30729,.35046-.30448,.63696,.073,7.43457-2.62956,13.69484-8.09025,18.71913-3.06843,2.82321-6.73202,4.53682-10.82931,5.32314-2.19359,.42098-4.40504,.55873-6.6283,.38776-3.8457-.29573-7.42339-1.44477-10.71338-3.4687-.02011-.01237-.03108-.03961-.09806-.12886Z" fill="#fff"/>
    <circle cx="27.23404" cy="27.23404" r="27.23404" fill="none"/>
  </g>
</svg>