<?xml version="1.0" encoding="UTF-8"?>
<svg id="Livello_2" data-name="Livello 2" xmlns="http://www.w3.org/2000/svg" viewBox="0 0 54.46809 54.46809">
  <g id="Livello_1-2" data-name="Livello 1">
    <path d="M41.7943,7.57437H12.67369c-2.96673,0-5.37185,2.40502-5.37185,5.37185v29.12081c0,2.96683,2.40502,5.37185,5.37185,5.37185h14.36215l.02448-14.24542h-3.70095c-.48097,0-.87133-.38891-.87319-.86987l-.01775-4.59189c-.00185-.4836,.38969-.8766,.87329-.8766h3.69422v-4.43693c0-5.14902,3.1447-7.95269,7.73796-7.95269h3.76912c.48223,0,.87328,.39095,.87328,.87329v3.8719c0,.48214-.39076,.87299-.8728,.87329l-2.31306,.00107c-2.49795,0-2.98165,1.187-2.98165,2.92899v3.84119h5.48887c.523,0,.92877,.45668,.86714,.97607l-.54425,4.59189c-.05207,.43942-.4247,.7705-.86714,.7705h-4.92014l-.02448,14.24542h8.54571c2.96673,0,5.37175-2.40502,5.37175-5.37175V12.94622c-.00009-2.96683-2.40511-5.37185-5.37194-5.37185Z" fill="#fff"/>
    <circle cx="27.23404" cy="27.23404" r="27.23404" fill="none"/>
  </g>
</svg>