<?xml version="1.0" encoding="UTF-8"?>
<svg id="Livello_2" data-name="Livello 2" xmlns="http://www.w3.org/2000/svg" viewBox="0 0 54.46809 54.46809">
  <g id="Livello_1-2" data-name="Livello 1">
    <g>
      <path d="M35.29921,6.6383H18.56714c-6.80005,0-12.33227,5.53223-12.33227,12.33227v16.73206c0,6.80004,5.53223,12.33227,12.33227,12.33227h16.73206c6.80004,0,12.33227-5.53223,12.33227-12.33227V18.97057c-.00007-6.80005-5.5323-12.33227-12.33227-12.33227Zm8.16778,29.06434c0,4.5109-3.65688,8.16778-8.16778,8.16778H18.56714c-4.5109,0-8.16778-3.65688-8.16778-8.16778V18.97057c0-4.51098,3.65688-8.16778,8.16778-8.16778h16.73206c4.5109,0,8.16778,3.6568,8.16778,8.16778v16.73206h0Z" fill="#fff"/>
      <path d="M26.93318,16.62997c-5.90365,0-10.70664,4.80299-10.70664,10.70656s4.80299,10.70664,10.70664,10.70664,10.70664-4.80299,10.70664-10.70664-4.80299-10.70656-10.70664-10.70656Zm0,17.24878c-3.61315,0-6.54214-2.92899-6.54214-6.54214s2.92906-6.54214,6.54214-6.54214,6.54214,2.92899,6.54214,6.54214-2.92906,6.54214-6.54214,6.54214Z" fill="#fff"/>
      <circle cx="37.66055" cy="16.71039" r="2.57276" fill="#fff"/>
    </g>
    <circle cx="27.23404" cy="27.23404" r="27.23404" fill="none"/>
  </g>
</svg>